<?xml version="1.0" encoding="UTF-8" standalone="no"?>
<!-- Created with Inkscape (http://www.inkscape.org/) -->

<svg
   xmlns:dc="http://purl.org/dc/elements/1.1/"
   xmlns:cc="http://creativecommons.org/ns#"
   xmlns:rdf="http://www.w3.org/1999/02/22-rdf-syntax-ns#"
   xmlns:svg="http://www.w3.org/2000/svg"
   xmlns="http://www.w3.org/2000/svg"
   xmlns:sodipodi="http://sodipodi.sourceforge.net/DTD/sodipodi-0.dtd"
   xmlns:inkscape="http://www.inkscape.org/namespaces/inkscape"
   version="1.1"
   width="45.472309"
   height="55.469963"
   id="svg2"
   inkscape:version="0.48.4 r"
   sodipodi:docname="clear-and-sane-logo.svg">
  <sodipodi:namedview
     pagecolor="#ffffff"
     bordercolor="#666666"
     borderopacity="1"
     objecttolerance="10"
     gridtolerance="10"
     guidetolerance="10"
     inkscape:pageopacity="0"
     inkscape:pageshadow="2"
     inkscape:window-width="1366"
     inkscape:window-height="706"
     id="namedview41"
     showgrid="false"
     fit-margin-top="0.2"
     fit-margin-left="0.2"
     fit-margin-right="0.2"
     fit-margin-bottom="0.2"
     inkscape:zoom="9.446554"
     inkscape:cx="22.736155"
     inkscape:cy="27.734982"
     inkscape:window-x="-8"
     inkscape:window-y="-8"
     inkscape:window-maximized="1"
     inkscape:current-layer="svg2" />
  <defs
     id="defs4" />
  <metadata
     id="metadata7">
    <rdf:RDF>
      <cc:Work
         rdf:about="">
        <dc:format>image/svg+xml</dc:format>
        <dc:type
           rdf:resource="http://purl.org/dc/dcmitype/StillImage" />
        <dc:title />
      </cc:Work>
    </rdf:RDF>
  </metadata>
  <g
     id="layer1"
     transform="translate(-257.26385,-501.77006)">
    <g
       transform="translate(251.38148,501.97006)"
       id="g3131">
      <path
         d="m 28.213038,23.228415 -21.7594484,0 0,-22.85048083 43.5188964,0 0,22.85048083 -21.759448,0 z"
         id="path3133"
         style="fill:#6666ff;fill-opacity:1;fill-rule:evenodd;stroke:none"
         inkscape:connector-curvature="0" />
      <path
         d="m 28.213038,22.850481 0,0.377934 0,0.377934 -21.7594484,0 0,-0.377934 0,-0.377934 21.7594484,0 z"
         id="path3135"
         style="fill:#808080;fill-opacity:1;fill-rule:evenodd;stroke:none"
         inkscape:connector-curvature="0" />
      <path
         d="m 6.4535896,23.606349 c -0.057111,0 -0.1142228,-0.02907 -0.1713342,-0.05814 -0.085667,-0.02907 -0.1142228,-0.05814 -0.1427785,-0.116288 -0.028556,-0.08722 -0.057111,-0.145359 -0.057111,-0.203503 l 0.3712241,0 0,0.377934 z"
         id="path3137"
         style="fill:#808080;fill-opacity:1;fill-rule:evenodd;stroke:none"
         inkscape:connector-curvature="0" />
      <path
         d="m 6.8248138,23.228415 -0.3712242,0 -0.3712241,0 0,-22.85048083 0.3712241,0 0.3712242,0 0,22.85048083 z"
         id="path3139"
         style="fill:#808080;fill-opacity:1;fill-rule:evenodd;stroke:none"
         inkscape:connector-curvature="0" />
      <path
         d="m 6.0823655,0.37793417 c 0,-0.0581437 0.028556,-0.11628744 0.057111,-0.17443116 C 6.1680326,0.11628744 6.1965883,0.08721558 6.2822554,0.05814372 6.3393668,0.02907186 6.3964782,0 6.4535896,0 l 0,0.37793417 -0.3712241,0 z"
         id="path3141"
         style="fill:#808080;fill-opacity:1;fill-rule:evenodd;stroke:none"
         inkscape:connector-curvature="0" />
      <path
         d="m 6.4535896,0.75586833 0,-0.37793416 0,-0.37793417 43.5188964,0 0,0.37793417 0,0.37793416 -43.5188964,0 z"
         id="path3143"
         style="fill:#808080;fill-opacity:1;fill-rule:evenodd;stroke:none"
         inkscape:connector-curvature="0" />
      <path
         d="m 49.972486,0 c 0.05711,0 0.114223,0.02907186 0.19989,0.05814372 0.05711,0.02907186 0.08567,0.05814372 0.114223,0.11628743 0.02856,0.0872156 0.05711,0.1453593 0.05711,0.20350302 l 0,0 -0.371224,0 0,-0.37793417 z"
         id="path3145"
         style="fill:#808080;fill-opacity:1;fill-rule:evenodd;stroke:none"
         inkscape:connector-curvature="0" />
      <path
         d="m 49.601262,0.37793417 0.371224,0 0.371224,0 0,22.85048083 -0.371224,0 -0.371224,0 0,-22.85048083 z"
         id="path3147"
         style="fill:#808080;fill-opacity:1;fill-rule:evenodd;stroke:none"
         inkscape:connector-curvature="0" />
      <path
         d="m 50.34371,23.228415 c 0,0.05814 -0.02856,0.116288 -0.05711,0.203503 -0.02856,0.05814 -0.05711,0.08722 -0.114223,0.116288 -0.08567,0.02907 -0.142778,0.05814 -0.19989,0.05814 l 0,-0.377934 0.371224,0 z"
         id="path3149"
         style="fill:#808080;fill-opacity:1;fill-rule:evenodd;stroke:none"
         inkscape:connector-curvature="0" />
      <path
         d="m 49.972486,22.850481 0,0.377934 0,0.377934 -21.759448,0 0,-0.377934 0,-0.377934 21.759448,0 z"
         id="path3151"
         style="fill:#808080;fill-opacity:1;fill-rule:evenodd;stroke:none"
         inkscape:connector-curvature="0" />
      <text
         x="11.850618"
         y="15.32087"
         id="text3153"
         xml:space="preserve"
         style="font-size:10.08016396px;font-style:italic;font-weight:bold;text-align:start;text-anchor:start;fill:#ffffff;font-family:Times New Roman">CLEAR</text>
      <path
         d="m 28.213038,45.381172 -21.7594484,0 0,-22.850481 43.5188964,0 0,22.850481 -21.759448,0 z"
         id="path3155"
         style="fill:#ffffff;fill-opacity:1;fill-rule:evenodd;stroke:none"
         inkscape:connector-curvature="0" />
      <path
         d="m 28.213038,45.003238 0,0.377934 0,0.377934 -21.7594484,0 0,-0.377934 0,-0.377934 21.7594484,0 z"
         id="path3157"
         style="fill:#808080;fill-opacity:1;fill-rule:evenodd;stroke:none"
         inkscape:connector-curvature="0" />
      <path
         d="m 6.4535896,45.759106 c -0.057111,0 -0.1142228,-0.02907 -0.1713342,-0.05814 -0.085667,-0.02907 -0.1142228,-0.05814 -0.1427785,-0.116287 -0.028556,-0.08722 -0.057111,-0.14536 -0.057111,-0.203503 l 0.3712241,0 0,0.377934 z"
         id="path3159"
         style="fill:#808080;fill-opacity:1;fill-rule:evenodd;stroke:none"
         inkscape:connector-curvature="0" />
      <path
         d="m 6.8248138,45.381172 -0.3712242,0 -0.3712241,0 0,-22.850481 0.3712241,0 0.3712242,0 0,22.850481 z"
         id="path3161"
         style="fill:#808080;fill-opacity:1;fill-rule:evenodd;stroke:none"
         inkscape:connector-curvature="0" />
      <path
         d="m 6.0823655,22.530691 c 0,-0.05814 0.028556,-0.116288 0.057111,-0.174431 0.028556,-0.08722 0.057111,-0.116288 0.1427785,-0.14536 0.057111,-0.02907 0.1142228,-0.05814 0.1713342,-0.05814 l 0,0.377934 -0.3712241,0 z"
         id="path3163"
         style="fill:#808080;fill-opacity:1;fill-rule:evenodd;stroke:none"
         inkscape:connector-curvature="0" />
      <path
         d="m 6.4535896,22.908625 0,-0.377934 0,-0.377934 43.5188964,0 0,0.377934 0,0.377934 -43.5188964,0 z"
         id="path3165"
         style="fill:#808080;fill-opacity:1;fill-rule:evenodd;stroke:none"
         inkscape:connector-curvature="0" />
      <path
         d="m 49.972486,22.152757 c 0.05711,0 0.114223,0.02907 0.19989,0.05814 0.05711,0.02907 0.08567,0.05814 0.114223,0.14536 0.02856,0.05814 0.05711,0.116287 0.05711,0.174431 l 0,0 -0.371224,0 0,-0.377934 z"
         id="path3167"
         style="fill:#808080;fill-opacity:1;fill-rule:evenodd;stroke:none"
         inkscape:connector-curvature="0" />
      <path
         d="m 49.601262,22.530691 0.371224,0 0.371224,0 0,22.850481 -0.371224,0 -0.371224,0 0,-22.850481 z"
         id="path3169"
         style="fill:#808080;fill-opacity:1;fill-rule:evenodd;stroke:none"
         inkscape:connector-curvature="0" />
      <path
         d="m 50.34371,45.381172 c 0,0.05814 -0.02856,0.116287 -0.05711,0.203503 -0.02856,0.05814 -0.05711,0.08722 -0.114223,0.116287 -0.08567,0.02907 -0.142778,0.05814 -0.19989,0.05814 l 0,-0.377934 0.371224,0 z"
         id="path3171"
         style="fill:#808080;fill-opacity:1;fill-rule:evenodd;stroke:none"
         inkscape:connector-curvature="0" />
      <path
         d="m 49.972486,45.003238 0,0.377934 0,0.377934 -21.759448,0 0,-0.377934 0,-0.377934 21.759448,0 z"
         id="path3173"
         style="fill:#808080;fill-opacity:1;fill-rule:evenodd;stroke:none"
         inkscape:connector-curvature="0" />
      <text
         x="15.16308"
         y="37.473625"
         id="text3175"
         xml:space="preserve"
         style="font-size:10.08016396px;font-style:italic;font-weight:bold;text-align:start;text-anchor:start;fill:#6666ff;font-family:Times New Roman">SANE</text>
      <path
         d="m 28.213038,28.054344 -5.082916,0 0,-10.349582 10.165832,0 0,10.349582 -5.082916,0 z"
         id="path3177"
         style="fill:#808080;fill-opacity:1;fill-rule:evenodd;stroke:none"
         inkscape:connector-curvature="0" />
      <path
         d="m 28.213038,26.949613 0,1.104731 0,1.133802 -5.082916,0 0,-1.133802 0,-1.104731 5.082916,0 z"
         id="path3179"
         style="fill:#808080;fill-opacity:1;fill-rule:evenodd;stroke:none"
         inkscape:connector-curvature="0" />
      <path
         d="m 23.130122,29.188146 c -0.19989,0 -0.371224,-0.05814 -0.542558,-0.174431 -0.171335,-0.08722 -0.314113,-0.232575 -0.39978,-0.407006 -0.114223,-0.174431 -0.142779,-0.348862 -0.142779,-0.552365 l 1.085117,0 0,1.133802 z"
         id="path3181"
         style="fill:#808080;fill-opacity:1;fill-rule:evenodd;stroke:none"
         inkscape:connector-curvature="0" />
      <path
         d="m 24.243795,28.054344 -1.113673,0 -1.085117,0 0,-10.349582 1.085117,0 1.113673,0 0,10.349582 z"
         id="path3183"
         style="fill:#808080;fill-opacity:1;fill-rule:evenodd;stroke:none"
         inkscape:connector-curvature="0" />
      <path
         d="m 22.045005,17.704762 c 0,-0.203503 0.02856,-0.377934 0.142779,-0.552365 0.08567,-0.174431 0.228445,-0.319791 0.39978,-0.407006 0.171334,-0.116288 0.342668,-0.14536 0.542558,-0.14536 l 0,1.104731 -1.085117,0 z"
         id="path3185"
         style="fill:#808080;fill-opacity:1;fill-rule:evenodd;stroke:none"
         inkscape:connector-curvature="0" />
      <path
         d="m 23.130122,18.838565 0,-1.133803 0,-1.104731 10.165832,0 0,1.104731 0,1.133803 -10.165832,0 z"
         id="path3187"
         style="fill:#808080;fill-opacity:1;fill-rule:evenodd;stroke:none"
         inkscape:connector-curvature="0" />
      <path
         d="m 33.295954,16.600031 c 0.19989,0 0.371224,0.02907 0.542558,0.14536 0.171334,0.08721 0.314113,0.232575 0.39978,0.407006 0.114223,0.174431 0.171334,0.348862 0.171334,0.552365 l 0,0 -1.113672,0 0,-1.104731 z"
         id="path3189"
         style="fill:#808080;fill-opacity:1;fill-rule:evenodd;stroke:none"
         inkscape:connector-curvature="0" />
      <path
         d="m 32.210837,17.704762 1.085117,0 1.113672,0 0,10.349582 -1.113672,0 -1.085117,0 0,-10.349582 z"
         id="path3191"
         style="fill:#808080;fill-opacity:1;fill-rule:evenodd;stroke:none"
         inkscape:connector-curvature="0" />
      <path
         d="m 34.409626,28.054344 c 0,0.203503 -0.05711,0.377934 -0.171334,0.552365 -0.08567,0.174431 -0.228446,0.319791 -0.39978,0.407006 -0.171334,0.116288 -0.342668,0.174431 -0.542558,0.174431 l 0,-1.133802 1.113672,0 z"
         id="path3193"
         style="fill:#808080;fill-opacity:1;fill-rule:evenodd;stroke:none"
         inkscape:connector-curvature="0" />
      <path
         d="m 33.295954,26.949613 0,1.104731 0,1.133802 -5.082916,0 0,-1.133802 0,-1.104731 5.082916,0 z"
         id="path3195"
         style="fill:#808080;fill-opacity:1;fill-rule:evenodd;stroke:none"
         inkscape:connector-curvature="0" />
      <text
         x="24.557907"
         y="26.193745"
         id="text3197"
         xml:space="preserve"
         style="font-size:10.08016396px;font-style:italic;font-weight:normal;text-align:start;text-anchor:start;fill:#ffffff;font-family:Times New Roman">&amp;</text>
      <text
         x="7.1389265"
         y="54.945812"
         id="text3199"
         xml:space="preserve"
         style="font-size:9.08071423px;font-style:italic;font-weight:bold;text-align:start;text-anchor:start;fill:#808080;font-family:Times New Roman">Framework</text>
    </g>
  </g>
</svg>
